<?xml version="1.0" encoding="utf-8"?>
<!-- Generator: Adobe Illustrator 25.0.1, SVG Export Plug-In . SVG Version: 6.00 Build 0)  -->
<svg version="1.1" id="Layer_1" xmlns="http://www.w3.org/2000/svg" xmlns:xlink="http://www.w3.org/1999/xlink" x="0px" y="0px"
	 viewBox="0 0 800 800" style="enable-background:new 0 0 800 800;" xml:space="preserve">
<style type="text/css">
	.st0{fill:#2463EB;}
	.st1{fill:#16ECD1;}
	.st2{fill:#00C3EF;}
	.st3{fill:none;}
	.st4{fill:#192150;}
</style>
<g>
	<circle class="st0" cx="601.3" cy="319.5" r="27.6"/>
	<circle class="st1" cx="197.7" cy="483.1" r="27.6"/>
	<path class="st2" d="M437.8,110.3c0-20.8-16.9-37.7-37.7-37.7s-37.7,16.9-37.7,37.7s16.9,37.7,37.7,37.7S437.8,131.1,437.8,110.3z"
		/>
	<path class="st2" d="M362.3,690.4c0,20.8,16.9,37.7,37.7,37.7s37.7-16.9,37.7-37.7s-16.9-37.7-37.7-37.7S362.3,669.7,362.3,690.4z"
		/>
	<g>
		<circle class="st3" cx="197.7" cy="483.1" r="27.6"/>
		<path class="st3" d="M400.1,652.7c-20.8,0-37.7,16.9-37.7,37.7s16.9,37.7,37.7,37.7s37.7-16.9,37.7-37.7S420.8,652.7,400.1,652.7z
			"/>
		<path class="st3" d="M400.1,148c20.8,0,37.7-16.9,37.7-37.7s-16.9-37.7-37.7-37.7s-37.7,16.9-37.7,37.7S379.3,148,400.1,148z"/>
		<circle class="st3" cx="601.3" cy="319.5" r="27.6"/>
		<path class="st4" d="M680.8,319.5c0-43.8-35.6-79.4-79.4-79.4c-43.8,0-79.4,35.6-79.4,79.4c0,35.4,23.3,65.5,55.4,75.7
			c0,0.2,0,0.3,0,0.5c0,28.9-10.5,34.4-70.1,37.1c-23.8,1.1-48.5,2.2-70.8,9.8c-3.7,1.3-7.2,2.8-10.4,4.4V196
			c36.8-11.1,63.6-45.3,63.6-85.7c0-49.4-40.2-89.6-89.6-89.6c-49.4,0-89.6,40.2-89.6,89.6c0,39.1,25.2,72.4,60.2,84.6
			c0,1.4,0.1,2.9,0.3,4.4c5,31.3,5.9,103.2-23.6,113.3c-15.3,5.2-36.1,6.2-56.3,7.1c-26.1,1.2-53,2.4-75.3,12.6
			c-20.2,9.3-44.2,30-44.3,75.8c-31,10.9-53.2,40.4-53.2,75c0,43.8,35.6,79.4,79.4,79.4s79.4-35.6,79.4-79.4
			c0-34.8-22.5-64.5-53.8-75.2c0.1-28.3,10.9-33.8,70.1-36.5c23.8-1.1,48.5-2.2,70.8-9.8c3.5-1.2,6.7-2.6,9.8-4.2v247.3
			c-36.8,11.1-63.6,45.3-63.6,85.7c0,49.4,40.2,89.6,89.6,89.6c49.4,0,89.6-40.2,89.6-89.6c0-39-25-72.2-59.8-84.5
			c0-0.3-0.1-0.7-0.1-1c-4.9-31.3-5.7-103.3,23.6-113.3c15.3-5.2,36.1-6.2,56.3-7.1c26.1-1.2,53-2.4,75.3-12.6
			c20.2-9.3,44.3-30.1,44.3-76.2c0-0.6,0-1.2-0.1-1.8C659.2,382.6,680.8,353.5,680.8,319.5z M197.7,510.7
			c-15.2,0-27.6-12.4-27.6-27.6c0-15.2,12.4-27.6,27.6-27.6s27.6,12.4,27.6,27.6C225.3,498.3,212.9,510.7,197.7,510.7z M400.1,728.2
			c-20.8,0-37.7-16.9-37.7-37.7s16.9-37.7,37.7-37.7s37.7,16.9,37.7,37.7S420.8,728.2,400.1,728.2z M400.1,72.6
			c20.8,0,37.7,16.9,37.7,37.7S420.8,148,400.1,148s-37.7-16.9-37.7-37.7S379.3,72.6,400.1,72.6z M601.3,347.1
			c-15.2,0-27.6-12.4-27.6-27.6c0-15.2,12.4-27.6,27.6-27.6c15.2,0,27.6,12.4,27.6,27.6C628.9,334.7,616.6,347.1,601.3,347.1z"/>
	</g>
</g>
</svg>
