<svg width="66px" height="88px" viewBox="0 0 66 88" version="1.1" xmlns="http://www.w3.org/2000/svg" xmlns:xlink="http://www.w3.org/1999/xlink">
    <g id="Page-1" stroke="none" stroke-width="1" fill="none" fill-rule="evenodd" opacity="0.100585938">
        <g id="2.5-Pipeline-SSH" transform="translate(-545.000000, -578.000000)" fill="#000000">
            <g id="keys" transform="translate(545.000000, 578.000000)">
                <polygon id="Path" points="8 81.213697 18.100429 44 21 44.786303 10.8995708 82"></polygon>
                <path d="M56.1992018,42.3392363 C60.6209572,37.509622 62.270704,30.7803496 60.5797136,24.4728245 C58.7223013,17.5761466 53.1478939,12.2831133 46.1263402,10.7491611 C43.8166947,4.09963985 39.3811913,0 34.3993903,0 C29.5210604,0 25.1477843,3.94804097 22.8164316,10.3604641 C15.4215142,10.8253199 8.94987606,15.460945 6.17280246,22.2829011 C3.39645239,29.1055757 4.80669638,36.9039443 9.80007454,42.3406733 L6.96945643,52.8678245 L9.46940166,59.2213322 L3.61424785,63.7132618 L6.50419886,70.1321511 L1.10996128,74.5299597 L0,78.6913889 L8.22630292,87.9920969 L20.0321222,84.0268124 L29.9964479,47.6099966 C31.0354989,47.2730301 32.0434362,46.8476907 33.0094064,46.3390077 C34.0173437,46.8749928 35.0715899,47.3218867 36.1598439,47.6732228 L38.9926326,58.2061218 L44.3600982,62.4552054 L41.5700002,69.2433929 L47.3035937,73.3825492 L44.8506807,79.8653833 L45.960642,84.0268124 L57.7715261,88 L66,78.6956998 L56.1992018,42.3392363 Z M34.3993903,2.9428891 C37.690201,2.9428891 40.8449798,5.77225847 42.7906679,10.3166369 C40.8341262,10.2347302 38.8768609,10.448837 36.9847171,10.9517722 C35.5997982,11.3203517 34.2619115,11.8441227 32.9971057,12.5144634 C30.8177034,11.3663344 28.434977,10.6478556 25.9806169,10.3985434 C27.9125572,5.81393033 31.0926612,2.9428891 34.3993903,2.9428891 Z M21.4915693,25.8221275 C21.9387374,28.6126991 22.8352446,31.3141794 24.1470827,33.8209518 C23.7172801,33.8381953 23.2860307,33.7936497 22.8685289,33.6887517 C21.1985221,33.2483242 19.9395048,31.8832146 19.6435635,30.1933525 C19.3476221,28.5027719 20.069748,26.7963848 21.4915693,25.8221275 Z M26.9350099,32.767662 C25.6253426,30.3672242 24.7541606,27.7548356 24.3605368,25.0526367 C24.5334706,25.0591031 24.7056811,25.0763466 24.8764444,25.1043672 L25.1832394,25.1690304 C26.3235906,25.4693544 27.2953494,26.2086692 27.8850614,27.2231611 C28.4747735,28.2376533 28.6325126,29.4432606 28.3235468,30.5734277 C28.0934504,31.4269805 27.6101038,32.1921605 26.9350099,32.767662 Z M28.3886683,45.0205991 L27.5753723,45.242609 L17.5871685,81.7449238 L9.14958224,84.5771671 L3.26910352,77.9276461 L3.73001956,76.203297 L10.1314709,70.9792377 L7.27190991,64.6257297 L13.0351701,60.2013375 L10.0829917,52.6968264 L13.0973973,41.4813727 L12.4924901,40.8828799 C8.10329558,36.5231505 6.58885687,30.0669002 8.58664244,24.230697 C10.5844278,18.3937753 15.7471222,14.1906745 21.9025589,13.3902891 C21.3381716,15.7526473 21.0559782,18.1724839 21.0624903,20.6002237 C21.0624903,21.2576319 21.093604,21.9538377 21.1377419,22.6780644 C18.2275309,23.895886 16.418598,26.8150651 16.6349465,29.9433218 C16.8512947,33.0715786 19.045892,35.7177358 22.0964763,36.5288983 C22.7324971,36.6998963 23.388778,36.7861138 24.0479532,36.7861138 C27.7562654,36.7695887 30.8806543,34.0336215 31.3618304,30.3830309 C31.842283,26.7324402 29.5311903,23.2902083 25.9523977,22.3274467 L25.7939351,22.2879303 C25.6557326,22.2512879 25.516083,22.2225487 25.3742627,22.2009945 C24.9430131,22.1248356 24.5059749,22.0860378 24.0674897,22.0860378 C24.0407174,21.5730439 24.0262459,21.0772936 24.0262459,20.6002237 C24.0269696,18.132249 24.3561952,15.6750516 25.0052405,13.2932946 C32.9623742,13.753121 39.4151993,19.863783 40.2545442,27.734718 C41.093889,35.6049347 36.0722914,42.9219226 28.3886683,45.0263469 L28.3886683,45.0205991 Z M56.8402876,84.5771671 L48.409937,81.7463607 L47.949021,80.0212931 L50.86285,72.3184821 L45.1842481,68.2188421 L47.9359966,61.5269308 L41.602561,56.5033271 L38.5896024,45.2921842 L37.764729,45.0716111 C37.1381148,44.8977392 36.5216303,44.688662 35.9196175,44.4450976 C38.5063915,42.4254537 40.5331198,39.7857628 41.8087792,36.7746181 C41.8616002,36.7746181 41.9136975,36.7889877 41.9672418,36.7889877 C42.6177341,36.7889877 43.2660556,36.7020518 43.8933936,36.5303353 C47.5119828,35.5690106 49.835376,32.0736114 49.3042734,28.3914077 C48.7724471,24.7099224 45.5532703,22.0041312 41.8087792,22.0910672 C40.534567,19.0784856 38.5085622,16.4380762 35.9210647,14.4198693 C36.5158417,14.1777418 37.1258139,13.9715385 37.7466398,13.8034144 C44.8745586,11.9001642 52.4011664,14.9896229 56.0942837,21.3352276 C59.787401,27.6815506 58.7251956,35.6997739 53.5046154,40.8814429 L52.900432,41.4813727 L62.7251079,77.9305198 L56.8402876,84.5771671 Z M42.7624487,25.0943086 C44.7985834,25.4758207 46.2985505,27.2030438 46.3803144,29.257893 C46.4620781,31.3134609 45.1024842,33.1520482 43.1032515,33.6916256 C42.9983335,33.7225202 42.8825618,33.7210834 42.7733022,33.7433561 C43.4527374,30.8988987 43.4491196,27.9366106 42.7624487,25.0943086 Z" id="Shape" fill-rule="nonzero"></path>
                <polygon id="Path" points="46 44.7790801 48.9343832 44 59 81.2209199 56.0656168 82"></polygon>
            </g>
        </g>
    </g>
</svg>