<?xml version="1.0" encoding="UTF-8"?>
<svg width="14px" height="14px" viewBox="0 0 14 14" version="1.1" xmlns="http://www.w3.org/2000/svg" xmlns:xlink="http://www.w3.org/1999/xlink">
    <title>Icons / z-nested / icon glyphs / utility /new_window</title>
    <defs>
        <path d="M13.1115385,0.538461538 L7.96923077,0.538461538 C7.75384615,0.538461538 7.53846154,0.673076923 7.53846154,0.888461538 L7.53846154,1.69615385 C7.53846154,1.91153846 7.72692308,2.15384615 7.96923077,2.15384615 L10.0961538,2.15384615 C10.3384615,2.15384615 10.4730769,2.42307692 10.2846154,2.58461538 L5.70769231,7.16153846 C5.54615385,7.32307692 5.54615385,7.56538462 5.70769231,7.72692308 L6.27307692,8.29230769 C6.43461538,8.45384615 6.67692308,8.45384615 6.83846154,8.29230769 L11.4153846,3.71538462 C11.5769231,3.55384615 11.8461538,3.66153846 11.8461538,3.90384615 L11.8461538,6.03076923 C11.8461538,6.24615385 12.0615385,6.48846154 12.2769231,6.48846154 L13.0576923,6.48846154 C13.2730769,6.48846154 13.4615385,6.24615385 13.4615385,6.03076923 L13.4615385,0.915384615 C13.4615385,0.673076923 13.3269231,0.538461538 13.1115385,0.538461538 L13.1115385,0.538461538 Z M9.77307692,6.86538462 L8.85769231,7.80769231 C8.69615385,7.96923077 8.61538462,8.15769231 8.61538462,8.37307692 L8.61538462,11.4423077 C8.61538462,11.6576923 8.42692308,11.8461538 8.21153846,11.8461538 L2.55769231,11.8461538 C2.34230769,11.8461538 2.15384615,11.6576923 2.15384615,11.4423077 L2.15384615,5.78846154 C2.15384615,5.57307692 2.34230769,5.38461538 2.55769231,5.38461538 L5.65384615,5.38461538 C5.86923077,5.38461538 6.08461538,5.30384615 6.21923077,5.14230769 L7.13461538,4.22692308 C7.29615385,4.06538462 7.18846154,3.76923077 6.94615385,3.76923077 L1.61538462,3.76923077 C1.02307692,3.76923077 0.538461538,4.25384615 0.538461538,4.84615385 L0.538461538,12.3846154 C0.538461538,12.9769231 1.02307692,13.4615385 1.61538462,13.4615385 L9.15384615,13.4615385 C9.74615385,13.4615385 10.2307692,12.9769231 10.2307692,12.3846154 L10.2307692,7.05384615 C10.2307692,6.81153846 9.93461538,6.70384615 9.77307692,6.86538462 Z" id="path-1"></path>
    </defs>
    <g id="Commit-Data-in-US" stroke="none" stroke-width="1" fill="none" fill-rule="evenodd">
        <g id="1.2-User-Story-with-Data-changes" transform="translate(-200.000000, -262.000000)">
            <g id="Group-2" transform="translate(10.000000, 174.000000)">
                <g id="Compound-Form" transform="translate(19.935233, 20.000000)">
                    <g id="Template-Info" transform="translate(3.064767, 19.000000)">
                        <g id="Template-Title" transform="translate(0.000000, 47.000000)">
                            <g id="Icons-/-z-nested-/-icon-glyphs-/-utility-/new_window" transform="translate(167.000000, 2.000000)">
                                <mask id="mask-2" fill="white">
                                    <use xlink:href="#path-1"></use>
                                </mask>
                                <use id="🎨-Color" fill="#706E6B" xlink:href="#path-1"></use>
                                <g id="Group" mask="url(#mask-2)">
                                    <g transform="translate(-0.538462, -0.538462)" id="🚫-Color-(Deprecated,-Use-Layer-Styles)">
                                        <rect id="color" fill="#0070D2" x="0" y="0" width="15.0769231" height="15.0769231"></rect>
                                    </g>
                                </g>
                            </g>
                        </g>
                    </g>
                </g>
            </g>
        </g>
    </g>
</svg>