<?xml version="1.0" encoding="UTF-8"?>
<svg width="14px" height="14px" viewBox="0 0 14 14" version="1.1" xmlns="http://www.w3.org/2000/svg" xmlns:xlink="http://www.w3.org/1999/xlink">
    <title>Icon and Color</title>
    <defs>
        <path d="M12.6269231,5.03461538 L10.4461539,5.03461538 C9.96153847,5.03461538 9.58461539,5.41153846 9.58461539,5.89615384 L9.58461539,6.43461538 L7.56538459,6.43461538 L7.56538459,2.18076921 C7.56538459,2.04615383 7.43076923,1.91153844 7.29615385,1.91153844 L4.46923076,1.91153844 L4.46923076,1.39999998 C4.46923076,0.915384592 4.09230768,0.538461514 3.60769229,0.538461514 L1.42692306,0.538461514 C0.969230746,0.538461514 0.565384591,0.915384592 0.565384591,1.39999998 L0.565384591,3.58076922 C0.565384591,4.0653846 0.942307669,4.44230768 1.42692306,4.44230768 L3.60769229,4.44230768 C4.09230768,4.44230768 4.46923076,4.0653846 4.46923076,3.58076922 L4.46923076,3.06923075 L6.46153846,3.06923075 L6.46153846,6.43461538 L4.46923076,6.43461538 L4.46923076,5.92307692 C4.46923076,5.43846153 4.09230768,5.06153845 3.60769229,5.06153845 L1.42692306,5.06153845 C0.942307669,5.06153845 0.565384591,5.43846153 0.565384591,5.92307692 L0.565384591,8.07692308 C0.565384591,8.56153847 0.942307669,8.93846155 1.42692306,8.93846155 L3.60769229,8.93846155 C4.09230768,8.93846155 4.46923076,8.56153847 4.46923076,8.07692308 L4.46923076,7.56538462 L6.46153846,7.56538462 L6.46153846,10.9307692 L4.46923076,10.9307692 L4.46923076,10.4461539 C4.46923076,9.96153847 4.09230768,9.58461539 3.60769229,9.58461539 L1.42692306,9.58461539 C0.942307669,9.58461539 0.565384591,9.96153847 0.565384591,10.4461539 L0.565384591,12.6269231 C0.565384591,13.1115385 0.942307669,13.4884616 1.42692306,13.4884616 L3.60769229,13.4884616 C4.09230768,13.4884616 4.46923076,13.1115385 4.46923076,12.6269231 L4.46923076,12.1153846 L7.32307692,12.1153846 C7.48461539,12.1153846 7.59230769,11.9538462 7.59230769,11.8461539 L7.59230769,7.59230769 L9.61153847,7.59230769 L9.61153847,8.07692308 C9.61153847,8.56153847 9.98846155,8.93846155 10.4730769,8.93846155 L12.6538462,8.93846155 C13.1384616,8.93846155 13.5153846,8.56153847 13.5153846,8.07692308 L13.5153846,5.89615384 C13.4884616,5.41153846 13.1115385,5.03461538 12.6269231,5.03461538 L12.6269231,5.03461538 Z M3.3653846,3.33846152 L1.66923075,3.33846152 L1.66923075,1.61538459 L3.3653846,1.61538459 L3.3653846,3.33846152 Z M3.3653846,6.13846154 L3.3653846,7.83461539 L1.66923075,7.83461539 L1.66923075,6.13846154 L3.3653846,6.13846154 Z M3.3653846,12.3846154 L1.66923075,12.3846154 L1.66923075,10.6884616 L3.3653846,10.6884616 L3.3653846,12.3846154 Z M12.4115385,6.13846154 L12.4115385,7.83461539 L10.7153846,7.83461539 L10.7153846,6.13846154 L12.4115385,6.13846154 Z" id="path-1"></path>
    </defs>
    <g id="Commit-Data-in-US" stroke="none" stroke-width="1" fill="none" fill-rule="evenodd">
        <g id="1.2-User-Story-with-Data-changes" transform="translate(-227.000000, -263.000000)">
            <g id="Group-2" transform="translate(10.000000, 174.000000)">
                <g id="Compound-Form" transform="translate(19.935233, 20.000000)">
                    <g id="Template-Info" transform="translate(3.064767, 19.000000)">
                        <g id="Desktop-Components-/-Button-/-Neutral-w/-Icon-Right" transform="translate(102.000000, 0.000000)">
                            <g id="Icon-and-Color" transform="translate(92.000000, 50.000000)">
                                <mask id="mask-2" fill="white">
                                    <use xlink:href="#path-1"></use>
                                </mask>
                                <use id="🎨-Color" fill="#706E6B" xlink:href="#path-1"></use>
                                <g id="Group" mask="url(#mask-2)">
                                    <g transform="translate(-0.538462, -0.538462)" id="🚫-Color-(Deprecated,-Use-Layer-Styles)">
                                        <rect id="color" fill="#0070D2" x="0" y="0" width="15.0769231" height="15.0769231"></rect>
                                    </g>
                                </g>
                            </g>
                        </g>
                    </g>
                </g>
            </g>
        </g>
    </g>
</svg>