<?xml version="1.0" encoding="UTF-8"?>
<svg width="11px" height="11px" viewBox="0 0 11 11" version="1.1" xmlns="http://www.w3.org/2000/svg" xmlns:xlink="http://www.w3.org/1999/xlink">
    <!-- Generator: Sketch 63.1 (92452) - https://sketch.com -->
    <title>Icons / z-nested / icon glyphs / utility /edit@3x</title>
    <desc>Created with Sketch.</desc>
    <defs>
        <path d="M1.99440045,7.06538462 L3.87709276,8.94807692 C3.96170815,9.03269231 4.08863122,9.03269231 4.17324661,8.94807692 L8.86940045,4.23076923 C8.95401584,4.14615385 8.95401584,4.01923077 8.86940045,3.93461538 L7.00786199,2.07307692 C6.92324661,1.98846154 6.79632353,1.98846154 6.71170815,2.07307692 L1.99440045,6.79038462 C1.90978507,6.875 1.90978507,7.00192308 1.99440045,7.06538462 L1.99440045,7.06538462 Z M7.62132353,1.20576923 C7.53670815,1.29038462 7.53670815,1.41730769 7.62132353,1.50192308 L9.48286199,3.36346154 C9.56747738,3.44807692 9.69440045,3.44807692 9.77901584,3.36346154 L10.307862,2.83461538 C10.6463235,2.51730769 10.6463235,2.00961538 10.307862,1.67115385 L9.31363122,0.676923077 C8.97516969,0.338461538 8.44632353,0.338461538 8.10786199,0.676923077 L7.62132353,1.20576923 L7.62132353,1.20576923 Z M0.429015839,10.1961538 C0.386708147,10.4076923 0.577092762,10.5980769 0.788631224,10.5557692 L3.09440045,10.0057692 C3.17901584,9.98461538 3.24247738,9.94230769 3.28478507,9.9 L3.32709276,9.85769231 C3.36940045,9.81538462 3.3905543,9.66730769 3.30593892,9.58269231 L1.40209276,7.67884615 C1.31747738,7.59423077 1.16940045,7.61538462 1.12709276,7.65769231 L1.08478507,7.7 C1.02132353,7.76346154 1.00016969,7.82692308 0.979015839,7.89038462 L0.429015839,10.1961538 L0.429015839,10.1961538 Z" id="path-1"></path>
    </defs>
    <g id="Deployment-Step" stroke="none" stroke-width="1" fill="none" fill-rule="evenodd">
        <g id="1.0-Deployment-Step---Filter-hover" transform="translate(-234.000000, -913.000000)">
            <g id="Icons-/-z-nested-/-icon-glyphs-/-utility-/edit" transform="translate(234.000000, 913.000000)">
                <mask id="mask-2" fill="white">
                    <use xlink:href="#path-1"></use>
                </mask>
                <use id="🎨-Color" fill="#706E6B" fill-rule="evenodd" xlink:href="#path-1"></use>
                <g id="Icons-/-z-nested-/Icon-color/Science-Blue" mask="url(#mask-2)" fill="#0070D2" fill-rule="evenodd">
                    <g transform="translate(-0.423077, -0.423077)" id="color">
                        <rect x="0" y="0" width="11.8461538" height="11.8461538"></rect>
                    </g>
                </g>
            </g>
        </g>
    </g>
</svg>