<?xml version="1.0" encoding="UTF-8"?>
<svg width="13px" height="12px" viewBox="0 0 13 12" version="1.1" xmlns="http://www.w3.org/2000/svg" xmlns:xlink="http://www.w3.org/1999/xlink">
    <!-- Generator: sketchtool 63.1 (101010) - https://sketch.com -->
    <title>35ED128E-729D-4CD1-8C3F-AF2DC15BE217@3x</title>
    <desc>Created with sketchtool.</desc>
    <defs>
        <path d="M11.1923077,0.461538462 L10.5,0.461538462 C10.3153846,0.461538462 10.1538462,0.623076923 10.1538462,0.807692308 L10.1538462,2.42307692 C10.1538462,2.63076923 9.92307692,2.76923077 9.78461538,2.60769231 C8.7,1.40769231 7.15384615,0.784615385 5.46923077,0.946153846 C4.86923077,0.992307692 4.29230769,1.17692308 3.76153846,1.45384615 C3.48461538,1.59230769 3.20769231,1.75384615 2.97692308,1.93846154 C2.81538462,2.05384615 2.79230769,2.30769231 2.93076923,2.46923077 L3.41538462,2.95384615 C3.53076923,3.06923077 3.71538462,3.09230769 3.85384615,3 C4.13076923,2.81538462 4.43076923,2.65384615 4.75384615,2.51538462 C4.89230769,2.46923077 5.05384615,2.42307692 5.21538462,2.37692308 C6.66923077,2.1 8.05384615,2.67692308 8.83846154,3.62307692 C9.11538462,3.94615385 8.90769231,4.15384615 8.67692308,4.15384615 L7.06153846,4.15384615 C6.87692308,4.15384615 6.69230769,4.31538462 6.69230769,4.5 L6.69230769,5.19230769 C6.69230769,5.37692308 6.87692308,5.53846154 7.06153846,5.53846154 L11.2615385,5.53846154 C11.4230769,5.53846154 11.5384615,5.4 11.5384615,5.23846154 L11.5384615,0.807692308 C11.5384615,0.623076923 11.3769231,0.461538462 11.1923077,0.461538462 Z M9.09230769,8.63076923 C8.95384615,8.49230769 8.74615385,8.49230769 8.60769231,8.63076923 C8.23846154,9 7.77692308,9.3 7.26923077,9.48461538 C7.13076923,9.53076923 6.96923077,9.57692308 6.80769231,9.62307692 C5.35384615,9.9 3.96923077,9.32307692 3.18461538,8.37692308 C2.90769231,8.05384615 3.11538462,7.84615385 3.34615385,7.84615385 L4.96153846,7.84615385 C5.14615385,7.84615385 5.30769231,7.68461538 5.30769231,7.5 L5.30769231,6.80769231 C5.30769231,6.62307692 5.14615385,6.46153846 4.96153846,6.46153846 L0.761538462,6.46153846 C0.6,6.46153846 0.461538462,6.6 0.461538462,6.76153846 L0.461538462,11.1923077 C0.461538462,11.3769231 0.623076923,11.5384615 0.807692308,11.5384615 L1.5,11.5384615 C1.68461538,11.5384615 1.84615385,11.3769231 1.84615385,11.1923077 L1.84615385,9.57692308 C1.84615385,9.36923077 2.07692308,9.23076923 2.21538462,9.39230769 C3.27692308,10.5923077 4.84615385,11.2153846 6.53076923,11.0538462 C7.13076923,11.0076923 7.70769231,10.8230769 8.23846154,10.5461538 C8.74615385,10.2923077 9.18461538,9.96923077 9.55384615,9.6 C9.69230769,9.46153846 9.69230769,9.23076923 9.55384615,9.11538462 L9.09230769,8.63076923 L9.09230769,8.63076923 Z" id="path-1"></path>
    </defs>
    <g id="Template-Relationship-Diagram" stroke="none" stroke-width="1" fill="none" fill-rule="evenodd">
        <g id="2.0-TRD" transform="translate(-903.000000, -153.000000)">
            <g id="Refresh-btn" transform="translate(903.500000, 143.000000)">
                <g id="Icons-/-z-nested-/-icon-glyphs-/-utility-/rotate" transform="translate(0.000000, 10.000000)">
                    <mask id="mask-2" fill="white">
                        <use xlink:href="#path-1"></use>
                    </mask>
                    <use id="🎨-Color" fill="#706E6B" xlink:href="#path-1"></use>
                    <g id="🚫-Color-(Deprecated,-Use-Layer-Styles)" mask="url(#mask-2)" fill="#0070D2">
                        <g transform="translate(-0.461538, -0.461538)" id="color">
                            <rect x="0" y="0" width="12.9230769" height="12.9230769"></rect>
                        </g>
                    </g>
                </g>
            </g>
        </g>
    </g>
</svg>