<?xml version="1.0" encoding="UTF-8"?>
<svg width="35px" height="35px" viewBox="0 0 35 35" version="1.1" xmlns="http://www.w3.org/2000/svg" xmlns:xlink="http://www.w3.org/1999/xlink">
    <!-- Generator: sketchtool 63 (101010) - https://sketch.com -->
    <title>90986246-8CF5-42A2-AA2B-E1EDB010901A@3x</title>
    <desc>Created with sketchtool.</desc>
    <defs>
        <path d="M16.0281709,0.461538462 L14.932017,0.461538462 C14.6397093,0.461538462 14.3839401,0.717307692 14.3839401,1.00961538 L14.3839401,3.56730769 C14.3839401,3.89615385 14.2012478,4.04230769 13.9454786,3.82307692 C13.8358632,3.67692308 13.7262478,3.56730769 13.5800939,3.45769231 C11.7531709,1.63076923 9.19547855,0.863461538 6.56470932,1.375 C5.65124778,1.55769231 4.77432471,1.92307692 4.00701701,2.43461538 C1.77817086,3.89615385 0.499324705,6.27115385 0.462786244,8.82884615 C0.426247782,10.8019231 1.19355547,12.775 2.58201701,14.2 C4.04355547,15.7346154 6.0166324,16.575 8.13586317,16.575 C9.99932471,16.575 11.7531709,15.9173077 13.1416324,14.7480769 C13.3974016,14.5288462 13.3974016,14.1634615 13.1781709,13.9442308 L12.4108632,13.1769231 C12.2281709,12.9942308 11.8993247,12.9576923 11.6800939,13.1403846 C10.3647093,14.2365385 8.57432471,14.675 6.78394009,14.2365385 C6.30894009,14.1269231 5.83394009,13.9076923 5.39547855,13.6519231 C3.31278624,12.3730769 2.32624778,9.96153846 2.91086317,7.55 C3.02047855,7.075 3.23970932,6.6 3.49547855,6.16153846 C4.51855547,4.37115385 6.30894009,3.38461538 8.20894009,3.38461538 C9.67047855,3.38461538 11.0589401,3.96923077 12.082017,4.99230769 C12.2647093,5.13846154 12.4108632,5.32115385 12.5204786,5.50384615 C12.6300939,5.79615385 12.3743247,5.94230769 12.0454786,5.94230769 L9.48778624,5.94230769 C9.19547855,5.94230769 8.93970932,6.19807692 8.93970932,6.49038462 L8.93970932,7.62307692 C8.93970932,7.91538462 9.15894009,8.13461538 9.45124778,8.13461538 L16.1377862,8.13461538 C16.3935555,8.13461538 16.6127862,7.91538462 16.6127862,7.65961538 L16.6127862,1.00961538 C16.5762478,0.717307692 16.3204786,0.461538462 16.0281709,0.461538462 L16.0281709,0.461538462 Z" id="path-1"></path>
    </defs>
    <g id="Template-Relationship-Diagram" stroke="none" stroke-width="1" fill="none" fill-rule="evenodd">
        <g id="2.0-TRD" transform="translate(-1199.000000, -720.000000)">
            <g id="Group-4-Copy" transform="translate(1199.000000, 720.000000)">
                <circle id="Oval-Copy-2" stroke="#95B8D6" fill-opacity="0.1" fill="#86D9FC" cx="17.5" cy="17.5" r="17"></circle>
                <g id="Icons-/-z-nested-/-icon-glyphs-/-utility-/refresh" transform="translate(9.000000, 9.000000)">
                    <mask id="mask-2" fill="white">
                        <use xlink:href="#path-1"></use>
                    </mask>
                    <use id="🎨-Color" fill="#706E6B" xlink:href="#path-1"></use>
                    <g id="🚫-Color-(Deprecated,-Use-Layer-Styles)" mask="url(#mask-2)" fill="#0070D2">
                        <g transform="translate(-1.730769, -1.730769)" id="color">
                            <rect x="0" y="0" width="20.4615385" height="20.4615385"></rect>
                        </g>
                    </g>
                </g>
            </g>
        </g>
    </g>
</svg>