<?xml version="1.0" encoding="UTF-8"?>
<svg width="12px" height="12px" viewBox="0 0 12 12" version="1.1" xmlns="http://www.w3.org/2000/svg" xmlns:xlink="http://www.w3.org/1999/xlink">
    <!-- Generator: Sketch 63.1 (92452) - https://sketch.com -->
    <title>Icon and Color@3x</title>
    <desc>Created with Sketch.</desc>
    <defs>
        <path d="M10.8230769,4.31538461 L8.95384617,4.31538461 C8.53846155,4.31538461 8.21538462,4.63846153 8.21538462,5.05384615 L8.21538462,5.51538461 L6.48461536,5.51538461 L6.48461536,1.86923075 C6.48461536,1.75384614 6.36923077,1.63846152 6.25384615,1.63846152 L3.83076922,1.63846152 L3.83076922,1.19999998 C3.83076922,0.784615365 3.5076923,0.46153844 3.09230768,0.46153844 L1.2230769,0.46153844 C0.830769211,0.46153844 0.484615363,0.784615365 0.484615363,1.19999998 L0.484615363,3.06923076 C0.484615363,3.48461537 0.807692288,3.8076923 1.2230769,3.8076923 L3.09230768,3.8076923 C3.5076923,3.8076923 3.83076922,3.48461537 3.83076922,3.06923076 L3.83076922,2.63076922 L5.53846154,2.63076922 L5.53846154,5.51538461 L3.83076922,5.51538461 L3.83076922,5.07692307 C3.83076922,4.66153846 3.5076923,4.33846153 3.09230768,4.33846153 L1.2230769,4.33846153 C0.807692288,4.33846153 0.484615363,4.66153846 0.484615363,5.07692307 L0.484615363,6.92307693 C0.484615363,7.33846154 0.807692288,7.66153847 1.2230769,7.66153847 L3.09230768,7.66153847 C3.5076923,7.66153847 3.83076922,7.33846154 3.83076922,6.92307693 L3.83076922,6.48461539 L5.53846154,6.48461539 L5.53846154,9.36923078 L3.83076922,9.36923078 L3.83076922,8.95384617 C3.83076922,8.53846155 3.5076923,8.21538462 3.09230768,8.21538462 L1.2230769,8.21538462 C0.807692288,8.21538462 0.484615363,8.53846155 0.484615363,8.95384617 L0.484615363,10.8230769 C0.484615363,11.2384616 0.807692288,11.5615385 1.2230769,11.5615385 L3.09230768,11.5615385 C3.5076923,11.5615385 3.83076922,11.2384616 3.83076922,10.8230769 L3.83076922,10.3846154 L6.27692308,10.3846154 C6.41538462,10.3846154 6.50769231,10.2461539 6.50769231,10.1538462 L6.50769231,6.50769231 L8.23846155,6.50769231 L8.23846155,6.92307693 C8.23846155,7.33846154 8.56153847,7.66153847 8.97692309,7.66153847 L10.8461539,7.66153847 C11.2615385,7.66153847 11.5846154,7.33846154 11.5846154,6.92307693 L11.5846154,5.05384615 C11.5615385,4.63846153 11.2384616,4.31538461 10.8230769,4.31538461 L10.8230769,4.31538461 Z M2.88461537,2.86153845 L1.43076921,2.86153845 L1.43076921,1.38461537 L2.88461537,1.38461537 L2.88461537,2.86153845 Z M2.88461537,5.26153846 L2.88461537,6.71538462 L1.43076921,6.71538462 L1.43076921,5.26153846 L2.88461537,5.26153846 Z M2.88461537,10.6153846 L1.43076921,10.6153846 L1.43076921,9.16153847 L2.88461537,9.16153847 L2.88461537,10.6153846 Z M10.6384616,5.26153846 L10.6384616,6.71538462 L9.1846154,6.71538462 L9.1846154,5.26153846 L10.6384616,5.26153846 Z" id="path-1"></path>
    </defs>
    <g id="Template-Relationship-Diagram" stroke="none" stroke-width="1" fill="none" fill-rule="evenodd">
        <g id="1.1-Deployment-Wizard" transform="translate(-1029.000000, -484.000000)">
            <g id="Desktop-Components-/-Button-/-Neutral-w/-Icon-Right" transform="translate(875.000000, 474.000000)">
                <g id="Icons-/-z-nested-/-icon-glyphs-/-utility-/strategy" transform="translate(154.000000, 10.000000)">
                    <mask id="mask-2" fill="white">
                        <use xlink:href="#path-1"></use>
                    </mask>
                    <use id="🎨-Color" fill="#706E6B" fill-rule="evenodd" xlink:href="#path-1"></use>
                    <g id="Icons-/-z-nested-/Icon-color/Science-Blue" mask="url(#mask-2)" fill="#0070D2" fill-rule="evenodd">
                        <g transform="translate(-0.461538, -0.461538)" id="color">
                            <rect x="0" y="0" width="12.9230769" height="12.9230769"></rect>
                        </g>
                    </g>
                </g>
            </g>
        </g>
    </g>
</svg>