<?xml version="1.0" encoding="UTF-8"?>
<svg width="35px" height="35px" viewBox="0 0 35 35" version="1.1" xmlns="http://www.w3.org/2000/svg" xmlns:xlink="http://www.w3.org/1999/xlink">
    <!-- Generator: sketchtool 63 (101010) - https://sketch.com -->
    <title>BDDEB354-2D2D-4303-9B87-9BD544288D8A@3x</title>
    <desc>Created with sketchtool.</desc>
    <defs>
        <path d="M11.9230769,7.30769231 L9.61538462,7.30769231 L9.61538462,5 C9.61538462,4.76923077 9.46153846,4.61538462 9.23076923,4.61538462 L7.69230769,4.61538462 C7.46153846,4.61538462 7.30769231,4.76923077 7.30769231,5 L7.30769231,7.30769231 L5,7.30769231 C4.76923077,7.30769231 4.61538462,7.46153846 4.61538462,7.69230769 L4.61538462,9.23076923 C4.61538462,9.46153846 4.76923077,9.61538462 5,9.61538462 L7.30769231,9.61538462 L7.30769231,11.9230769 C7.30769231,12.1538462 7.46153846,12.3076923 7.69230769,12.3076923 L9.23076923,12.3076923 C9.46153846,12.3076923 9.61538462,12.1538462 9.61538462,11.9230769 L9.61538462,9.61538462 L11.9230769,9.61538462 C12.1538462,9.61538462 12.3076923,9.46153846 12.3076923,9.23076923 L12.3076923,7.69230769 C12.3076923,7.46153846 12.1538462,7.30769231 11.9230769,7.30769231 Z M19.0769231,17.3846154 L14.6538462,13 C15.5769231,11.7307692 16.1538462,10.1538462 16.1538462,8.46153846 C16.1538462,4.23076923 12.6923077,0.769230769 8.46153846,0.769230769 C4.23076923,0.769230769 0.769230769,4.23076923 0.769230769,8.46153846 C0.769230769,12.6923077 4.23076923,16.1538462 8.46153846,16.1538462 C10.1538462,16.1538462 11.7307692,15.5769231 13,14.6538462 L17.4230769,19.0769231 C17.6538462,19.3076923 18,19.3076923 18.2307692,19.0769231 L19.0384615,18.2692308 C19.2692308,18.0384615 19.2692308,17.6538462 19.0769231,17.3846154 Z M8.46153846,13.8461538 C5.5,13.8461538 3.07692308,11.4230769 3.07692308,8.46153846 C3.07692308,5.5 5.5,3.07692308 8.46153846,3.07692308 C11.4230769,3.07692308 13.8461538,5.5 13.8461538,8.46153846 C13.8461538,11.4230769 11.4230769,13.8461538 8.46153846,13.8461538 Z" id="path-1"></path>
    </defs>
    <g id="Template-Relationship-Diagram" stroke="none" stroke-width="1" fill="none" fill-rule="evenodd">
        <g id="2.0-TRD" transform="translate(-1094.000000, -720.000000)">
            <g id="Group-3-Copy" transform="translate(1094.000000, 720.000000)">
                <circle id="Oval-Copy" stroke="#95B8D6" fill-opacity="0.1" fill="#86D9FC" cx="17.5" cy="17.5" r="17"></circle>
                <g id="Icons-/-z-nested-/-icon-glyphs-/-utility-/add" transform="translate(7.000000, 8.000000)">
                    <mask id="mask-2" fill="white">
                        <use xlink:href="#path-1"></use>
                    </mask>
                    <use id="🎨-Color" fill="#706E6B" xlink:href="#path-1"></use>
                    <g id="🚫-Color-(Deprecated,-Use-Layer-Styles)" mask="url(#mask-2)" fill="#0070D2">
                        <g transform="translate(-0.769231, -0.769231)" id="color">
                            <rect x="0" y="0" width="21.5384615" height="21.5384615"></rect>
                        </g>
                    </g>
                </g>
            </g>
        </g>
    </g>
</svg>